<svg xmlns="http://www.w3.org/2000/svg" viewBox="0 0 512 512" width="512" height="512">
  <defs>
    <linearGradient id="bg" x1="0%" y1="0%" x2="100%" y2="100%">
      <stop offset="0%" style="stop-color:#E8634A"/>
      <stop offset="100%" style="stop-color:#F4845F"/>
    </linearGradient>
  </defs>
  <rect width="512" height="512" rx="108" fill="url(#bg)"/>
  <!-- Heart -->
  <path d="M256 400c-5.3 0-10.7-2.1-14.4-5.9C210 364 138 300 138 236c0-41.4 33.4-74.8 74.8-74.8 23.4 0 44.8 10.8 58.8 27.8 14-17 35.4-27.8 58.8-27.8 41.4 0 74.8 33.4 74.8 74.8 0 64-72 128-103.6 158.1-3.7 3.8-9.1 5.9-14.4 5.9h-31.2z" fill="white" opacity="0.95"/>
  <!-- Connected people -->
  <circle cx="218" cy="248" r="19" fill="#E8634A"/>
  <path d="M196 284c0-12.2 9.8-22 22-22s22 9.8 22 22" stroke="#E8634A" stroke-width="7" fill="none" stroke-linecap="round"/>
  <circle cx="294" cy="248" r="19" fill="#E8634A"/>
  <path d="M272 284c0-12.2 9.8-22 22-22s22 9.8 22 22" stroke="#E8634A" stroke-width="7" fill="none" stroke-linecap="round"/>
  <!-- Connection line -->
  <path d="M237 264c10.5 11 27 11 37.5 0" stroke="#E8634A" stroke-width="6" fill="none" stroke-linecap="round"/>
</svg>